<svg width="184" height="45" viewBox="0 0 184 45" fill="none" xmlns="http://www.w3.org/2000/svg">
<path d="M0.0340909 35V0.0909081H13.8068C16.4432 0.0909081 18.6932 0.562499 20.5568 1.50568C22.4318 2.4375 23.858 3.76136 24.8352 5.47727C25.8239 7.18182 26.3182 9.1875 26.3182 11.4943C26.3182 13.8125 25.8182 15.8068 24.8182 17.4773C23.8182 19.1364 22.3693 20.4091 20.4716 21.2955C18.5852 22.1818 16.3011 22.625 13.6193 22.625H4.39773V16.6932H12.4261C13.8352 16.6932 15.0057 16.5 15.9375 16.1136C16.8693 15.7273 17.5625 15.1477 18.017 14.375C18.483 13.6023 18.7159 12.642 18.7159 11.4943C18.7159 10.3352 18.483 9.35795 18.017 8.5625C17.5625 7.76704 16.8636 7.16477 15.9205 6.75568C14.9886 6.33523 13.8125 6.125 12.392 6.125H7.41477V35H0.0340909ZM18.8864 19.1136L27.5625 35H19.4148L10.9261 19.1136H18.8864ZM48.1875 23.8523V8.81818H55.4489V35H48.4773V30.2443H48.2045C47.6136 31.7784 46.6307 33.0114 45.2557 33.9432C43.892 34.875 42.2273 35.3409 40.2614 35.3409C38.5114 35.3409 36.9716 34.9432 35.642 34.1477C34.3125 33.3523 33.2727 32.2216 32.5227 30.7557C31.7841 29.2898 31.4091 27.5341 31.3977 25.4886V8.81818H38.6591V24.1932C38.6705 25.7386 39.0852 26.9602 39.9034 27.858C40.7216 28.7557 41.8182 29.2045 43.1932 29.2045C44.0682 29.2045 44.8864 29.0057 45.6477 28.608C46.4091 28.1989 47.0227 27.5966 47.4886 26.8011C47.9659 26.0057 48.1989 25.0227 48.1875 23.8523ZM68.5185 19.8636V35H61.2571V8.81818H68.1776V13.4375H68.4844C69.0639 11.9148 70.0355 10.7102 71.3991 9.82386C72.7628 8.92614 74.4162 8.47727 76.3594 8.47727C78.1776 8.47727 79.7628 8.875 81.1151 9.67045C82.4673 10.4659 83.5185 11.6023 84.2685 13.0795C85.0185 14.5455 85.3935 16.2955 85.3935 18.3295V35H78.1321V19.625C78.1435 18.0227 77.7344 16.7727 76.9048 15.875C76.0753 14.9659 74.9332 14.5114 73.4787 14.5114C72.5014 14.5114 71.6378 14.7216 70.8878 15.142C70.1491 15.5625 69.5696 16.1761 69.1491 16.983C68.7401 17.7784 68.5298 18.7386 68.5185 19.8636ZM96.2812 35L89.1562 8.81818H96.5028L100.56 26.4091H100.798L105.026 8.81818H112.236L116.531 26.3068H116.753L120.741 8.81818H128.071L120.963 35H113.276L108.776 18.5341H108.452L103.952 35H96.2812ZM139.411 35.4943C137.74 35.4943 136.251 35.2045 134.945 34.625C133.638 34.0341 132.604 33.1648 131.842 32.017C131.092 30.858 130.717 29.4148 130.717 27.6875C130.717 26.233 130.984 25.0114 131.518 24.0227C132.053 23.0341 132.78 22.2386 133.7 21.6364C134.621 21.0341 135.666 20.5795 136.837 20.2727C138.018 19.9659 139.257 19.75 140.553 19.625C142.075 19.4659 143.303 19.3182 144.234 19.1818C145.166 19.0341 145.842 18.8182 146.263 18.5341C146.683 18.25 146.893 17.8295 146.893 17.2727V17.1705C146.893 16.0909 146.553 15.2557 145.871 14.6648C145.2 14.0739 144.246 13.7784 143.007 13.7784C141.7 13.7784 140.661 14.0682 139.888 14.6477C139.115 15.2159 138.604 15.9318 138.354 16.7955L131.638 16.25C131.979 14.6591 132.649 13.2841 133.649 12.125C134.649 10.9545 135.939 10.0568 137.518 9.43182C139.109 8.79545 140.95 8.47727 143.041 8.47727C144.496 8.47727 145.888 8.64773 147.217 8.98864C148.558 9.32955 149.746 9.85795 150.78 10.5739C151.825 11.2898 152.649 12.2102 153.251 13.3352C153.854 14.4489 154.155 15.7841 154.155 17.3409V35H147.268V31.3693H147.064C146.643 32.1875 146.081 32.9091 145.376 33.5341C144.672 34.1477 143.825 34.6307 142.837 34.983C141.848 35.3239 140.706 35.4943 139.411 35.4943ZM141.49 30.483C142.558 30.483 143.501 30.2727 144.32 29.8523C145.138 29.4205 145.78 28.8409 146.246 28.1136C146.712 27.3864 146.945 26.5625 146.945 25.642V22.8636C146.717 23.0114 146.405 23.1477 146.007 23.2727C145.621 23.3864 145.183 23.4943 144.695 23.5966C144.206 23.6875 143.717 23.7727 143.229 23.8523C142.74 23.9205 142.297 23.983 141.899 24.0398C141.047 24.1648 140.303 24.3636 139.666 24.6364C139.03 24.9091 138.536 25.2784 138.183 25.7443C137.831 26.1989 137.655 26.767 137.655 27.4489C137.655 28.4375 138.013 29.1932 138.729 29.7159C139.456 30.2273 140.376 30.483 141.49 30.483ZM163.334 44.8182C162.413 44.8182 161.55 44.7443 160.743 44.5966C159.947 44.4602 159.288 44.2841 158.766 44.0682L160.402 38.6477C161.254 38.9091 162.021 39.0511 162.703 39.0739C163.396 39.0966 163.993 38.9375 164.493 38.5966C165.004 38.2557 165.419 37.6761 165.737 36.858L166.163 35.75L156.771 8.81818H164.408L169.828 28.0455H170.101L175.572 8.81818H183.26L173.084 37.8295C172.595 39.2386 171.93 40.4659 171.089 41.5114C170.26 42.5682 169.209 43.3807 167.936 43.9489C166.663 44.5284 165.129 44.8182 163.334 44.8182Z" fill="black"/>
</svg>
