<svg width="22" height="25" viewBox="0 0 22 25" fill="none" xmlns="http://www.w3.org/2000/svg">
<path d="M16.4 6.35V5.75C16.4 4.31783 15.8311 2.94432 14.8184 1.93162C13.8057 0.918927 12.4322 0.35 11 0.35C9.56783 0.35 8.19432 0.918927 7.18162 1.93162C6.16893 2.94432 5.6 4.31783 5.6 5.75V6.35H0.5H0.35V6.5V21.5C0.35 22.3354 0.681874 23.1366 1.27261 23.7274C1.86335 24.3181 2.66457 24.65 3.5 24.65H18.5C19.3354 24.65 20.1366 24.3181 20.7274 23.7274C21.3181 23.1366 21.65 22.3354 21.65 21.5V6.5V6.35H21.5H16.4ZM11 2.15C11.9548 2.15 12.8705 2.52928 13.5456 3.20442C14.2207 3.87955 14.6 4.79522 14.6 5.75V6.35H7.4V5.75C7.4 4.79522 7.77928 3.87955 8.45442 3.20442C9.12955 2.52928 10.0452 2.15 11 2.15ZM19.85 8.15V21.5C19.85 21.858 19.7078 22.2014 19.4546 22.4546C19.2014 22.7078 18.858 22.85 18.5 22.85H3.5C3.14196 22.85 2.79858 22.7078 2.54541 22.4546C2.29223 22.2014 2.15 21.858 2.15 21.5V8.15H19.85Z" fill="black" stroke="black" stroke-width="0.3"/>
</svg>
