<svg width="16" height="16" viewBox="0 0 16 16" fill="none" xmlns="http://www.w3.org/2000/svg">
<path d="M14.6666 3.83334H7.16663M9.66663 12.1667H2.16663" stroke="black" stroke-width="1.5" stroke-linecap="round" stroke-linejoin="round"/>
<path d="M12.1666 14.6667C13.5473 14.6667 14.6666 13.5474 14.6666 12.1667C14.6666 10.786 13.5473 9.66669 12.1666 9.66669C10.7859 9.66669 9.66663 10.786 9.66663 12.1667C9.66663 13.5474 10.7859 14.6667 12.1666 14.6667Z" stroke="black" stroke-width="1.5" stroke-linecap="round" stroke-linejoin="round"/>
<path d="M3.83331 6.33334C5.21402 6.33334 6.33331 5.21406 6.33331 3.83334C6.33331 2.45263 5.21402 1.33334 3.83331 1.33334C2.4526 1.33334 1.33331 2.45263 1.33331 3.83334C1.33331 5.21406 2.4526 6.33334 3.83331 6.33334Z" stroke="black" stroke-width="1.5" stroke-linecap="round" stroke-linejoin="round"/>
</svg>
