<svg width="19" height="21" viewBox="0 0 19 21" fill="none" xmlns="http://www.w3.org/2000/svg">
<path d="M5.50602 13.765C5.53229 13.8599 5.577 13.9488 5.6376 14.0265C5.6982 14.1041 5.7735 14.1691 5.85921 14.2177C5.94492 14.2662 6.03935 14.2974 6.13712 14.3095C6.23489 14.3216 6.33408 14.3143 6.42902 14.288C6.52397 14.2617 6.61281 14.217 6.69048 14.1564C6.76815 14.0958 6.83312 14.0205 6.88168 13.9348C6.93025 13.8491 6.96146 13.7547 6.97353 13.6569C6.98559 13.5591 6.97829 13.4599 6.95202 13.365L5.50602 13.765ZM1.20002 3.225C1.10471 3.19716 1.00481 3.18852 0.906124 3.1996C0.807441 3.21067 0.71194 3.24123 0.62516 3.2895C0.538381 3.33777 0.462052 3.40279 0.400601 3.4808C0.33915 3.5588 0.293802 3.64823 0.267187 3.7439C0.240572 3.83957 0.23322 3.93957 0.245558 4.03811C0.257896 4.13664 0.289678 4.23174 0.33906 4.31789C0.388443 4.40404 0.454442 4.47953 0.533229 4.53998C0.612016 4.60042 0.702022 4.64462 0.798025 4.67L1.20002 3.225ZM18.188 14.225C18.2857 14.2024 18.3778 14.1605 18.459 14.1017C18.5402 14.0429 18.6087 13.9684 18.6607 13.8827C18.7126 13.7969 18.7468 13.7017 18.7612 13.6025C18.7757 13.5033 18.7701 13.4022 18.7448 13.3052C18.7196 13.2082 18.6751 13.1173 18.6141 13.0377C18.5531 12.9582 18.4767 12.8917 18.3896 12.8422C18.3025 12.7927 18.2063 12.7611 18.1067 12.7494C18.0072 12.7377 17.9063 12.7461 17.81 12.774L18.188 14.225ZM8.19702 16.059C8.50702 17.179 7.82702 18.362 6.62302 18.675L7.00002 20.126C8.97702 19.613 10.185 17.624 9.64302 15.659L8.19702 16.059ZM6.62302 18.675C5.41102 18.99 4.19502 18.286 3.88302 17.156L2.43702 17.556C2.97702 19.511 5.03102 20.638 7.00002 20.126L6.62302 18.675ZM3.88302 17.156C3.57302 16.036 4.25302 14.853 5.45702 14.54L5.08002 13.09C3.10302 13.603 1.89402 15.591 2.43702 17.556L3.88302 17.156ZM5.45702 14.54C6.66902 14.225 7.88502 14.929 8.19702 16.059L9.64302 15.659C9.10302 13.704 7.04902 12.577 5.08002 13.089L5.45702 14.54ZM6.95202 13.365L4.80002 5.575L3.35402 5.975L5.50602 13.765L6.95202 13.365ZM2.90402 3.697L1.20002 3.225L0.798025 4.67L2.50302 5.143L2.90402 3.697ZM4.80002 5.575C4.67288 5.12499 4.43145 4.71553 4.09921 4.38644C3.76697 4.05736 3.35523 3.81985 2.90402 3.697L2.50502 5.143C2.93002 5.261 3.24602 5.584 3.35402 5.975L4.80002 5.575ZM9.11002 16.585L18.188 14.225L17.811 12.774L8.73203 15.134L9.11002 16.585Z" fill="black"/>
<path d="M7.56501 7.23C7.08001 5.475 6.83801 4.597 7.25001 3.906C7.66101 3.214 8.56601 2.979 10.376 2.508L12.296 2.01C14.106 1.54 15.011 1.304 15.724 1.703C16.437 2.103 16.68 2.98 17.164 4.736L17.679 6.598C18.164 8.353 18.407 9.231 17.995 9.923C17.583 10.614 16.678 10.85 14.868 11.32L12.948 11.819C11.138 12.289 10.233 12.524 9.52001 12.125C8.80701 11.725 8.56501 10.848 8.08001 9.093L7.56501 7.23Z" stroke="black" stroke-width="1.5"/>
</svg>
