<svg width="24" height="24" viewBox="0 0 24 24" fill="none" xmlns="http://www.w3.org/2000/svg">
<path d="M9.00101 10C11.2101 10 13.001 8.20914 13.001 6C13.001 3.79086 11.2101 2 9.00101 2C6.79187 2 5.00101 3.79086 5.00101 6C5.00101 8.20914 6.79187 10 9.00101 10Z" fill="black"/>
<path d="M9.00101 21.001C12.867 21.001 16.001 19.2101 16.001 17.001C16.001 14.7919 12.867 13.001 9.00101 13.001C5.13501 13.001 2.00101 14.7919 2.00101 17.001C2.00101 19.2101 5.13501 21.001 9.00101 21.001Z" fill="black"/>
<path d="M21 17C21 18.657 18.964 20 16.479 20C17.211 19.2 17.715 18.195 17.715 17.002C17.715 15.807 17.21 14.802 16.476 14.001C18.962 14 21 15.344 21 17ZM18 5.99999C18.0003 6.4827 17.8842 6.95837 17.6614 7.3866C17.4386 7.81482 17.1157 8.18297 16.7203 8.45976C16.3248 8.73656 15.8684 8.91385 15.3898 8.97656C14.9111 9.03927 14.4244 8.98556 13.971 8.81999C14.459 7.96032 14.7151 6.98851 14.714 5.99999C14.714 4.97499 14.444 4.01299 13.972 3.18099C14.4254 3.01562 14.912 2.96207 15.3905 3.02488C15.8689 3.08769 16.3252 3.265 16.7206 3.54178C17.1159 3.81855 17.4386 4.18662 17.6614 4.61474C17.8841 5.04286 18.0003 5.51739 18 5.99999Z" fill="black"/>
</svg>
