<svg width="20" height="21" viewBox="0 0 20 21" fill="none" xmlns="http://www.w3.org/2000/svg">
<path fill-rule="evenodd" clip-rule="evenodd" d="M3.07897 3.56899C6.87397 -0.221009 13.044 -0.181009 16.862 3.63799C20.682 7.45799 20.722 13.631 16.926 17.426C13.13 21.221 6.95797 21.182 3.13797 17.362C2.06334 16.292 1.25141 14.9875 0.765927 13.5508C0.280447 12.1141 0.134646 10.5845 0.339973 9.08199C0.366893 8.8848 0.471042 8.70638 0.629511 8.58599C0.787979 8.46559 0.987785 8.41307 1.18497 8.43999C1.38216 8.46691 1.56058 8.57106 1.68098 8.72953C1.80138 8.888 1.85389 9.0878 1.82697 9.28499C1.65266 10.5583 1.77605 11.8547 2.18746 13.0723C2.59887 14.2898 3.28707 15.3954 4.19797 16.302C7.44297 19.546 12.666 19.565 15.866 16.366C19.065 13.166 19.046 7.94299 15.802 4.69799C12.559 1.45599 7.33897 1.43499 4.13897 4.62999L4.88697 4.63299C4.98546 4.63345 5.0829 4.6533 5.17372 4.69142C5.26454 4.72954 5.34696 4.78517 5.41628 4.85514C5.4856 4.92511 5.54046 5.00804 5.57772 5.09921C5.61499 5.19038 5.63393 5.288 5.63347 5.38649C5.63301 5.48498 5.61316 5.58242 5.57504 5.67324C5.53693 5.76406 5.4813 5.84648 5.41133 5.9158C5.34136 5.98511 5.25842 6.03997 5.16725 6.07724C5.07608 6.11451 4.97846 6.13345 4.87997 6.13299L2.33397 6.12099C2.13627 6.11994 1.94699 6.04087 1.80728 5.90098C1.66758 5.76109 1.58876 5.57169 1.58797 5.37399L1.57497 2.82999C1.57445 2.7315 1.59333 2.63387 1.63053 2.54267C1.66774 2.45148 1.72254 2.3685 1.79181 2.29849C1.86109 2.22847 1.94347 2.17279 2.03427 2.13461C2.12506 2.09644 2.22248 2.07652 2.32097 2.07599C2.41946 2.07547 2.5171 2.09434 2.60829 2.13155C2.69949 2.16876 2.78246 2.22356 2.85248 2.29283C2.92249 2.3621 2.97818 2.44449 3.01635 2.53528C3.05453 2.62608 3.07445 2.7235 3.07497 2.82199L3.07897 3.56899ZM9.99897 5.74899C10.1979 5.74899 10.3887 5.82801 10.5293 5.96866C10.67 6.10931 10.749 6.30008 10.749 6.49899V10.189L13.03 12.469C13.1016 12.5381 13.1588 12.6209 13.1982 12.7124C13.2375 12.8038 13.2582 12.9022 13.2592 13.0018C13.2601 13.1014 13.2411 13.2002 13.2035 13.2924C13.1658 13.3846 13.1102 13.4683 13.0398 13.5388C12.9694 13.6092 12.8857 13.665 12.7935 13.7027C12.7014 13.7405 12.6026 13.7595 12.503 13.7587C12.4034 13.7579 12.305 13.7372 12.2135 13.698C12.122 13.6587 12.0392 13.6016 11.97 13.53L9.24997 10.81V6.49999C9.24997 6.30108 9.32899 6.11031 9.46964 5.96966C9.6103 5.82901 9.80106 5.74999 9.99997 5.74999" fill="black"/>
</svg>
