<svg width="24" height="25" viewBox="0 0 24 25" fill="none" xmlns="http://www.w3.org/2000/svg">
<path d="M17 20.5C17.5304 20.5 18.0391 20.2893 18.4142 19.9142C18.7893 19.5391 19 19.0304 19 18.5C19 17.9696 18.7893 17.4609 18.4142 17.0858C18.0391 16.7107 17.5304 16.5 17 16.5C16.4696 16.5 15.9609 16.7107 15.5858 17.0858C15.2107 17.4609 15 17.9696 15 18.5C15 19.0304 15.2107 19.5391 15.5858 19.9142C15.9609 20.2893 16.4696 20.5 17 20.5ZM7 20.5C7.53043 20.5 8.03914 20.2893 8.41421 19.9142C8.78929 19.5391 9 19.0304 9 18.5C9 17.9696 8.78929 17.4609 8.41421 17.0858C8.03914 16.7107 7.53043 16.5 7 16.5C6.46957 16.5 5.96086 16.7107 5.58579 17.0858C5.21071 17.4609 5 17.9696 5 18.5C5 19.0304 5.21071 19.5391 5.58579 19.9142C5.96086 20.2893 6.46957 20.5 7 20.5Z" stroke="black" stroke-width="1.5" stroke-linecap="round" stroke-linejoin="round"/>
<path d="M19 11.5H22M22 11.5V13.5C22 15.857 22 17.035 21.268 17.768C20.781 18.255 20.097 18.418 19 18.472M22 11.5L20.724 9.13C20.034 7.848 19.689 7.207 19.096 6.854C18.504 6.5 17.777 6.5 16.321 6.5H14.5M5 18.472C3.903 18.418 3.22 18.255 2.732 17.768C2 17.035 2 15.857 2 13.5V9.5C2 7.143 2 5.964 2.732 5.232C3.464 4.5 4.643 4.5 7 4.5H10.3C11.417 4.5 11.975 4.5 12.427 4.647C12.8772 4.7933 13.2864 5.04408 13.6212 5.37882C13.9559 5.71356 14.2067 6.12277 14.353 6.573C14.5 7.025 14.5 7.583 14.5 8.7C14.5 9.92 14.5 10.531 14.166 10.944C14.1 11.0253 14.026 11.0993 13.944 11.166C13.531 11.5 12.921 11.5 11.7 11.5H8M15 18.5H9" stroke="black" stroke-width="1.5" stroke-linecap="round" stroke-linejoin="round"/>
<path d="M10 13.5C10 13.5 9.328 12.944 8.737 12.416C8.32 12.08 8 11.793 8 11.505C8 11.25 8.25 11.013 8.656 10.641C9.232 10.162 10 9.5 10 9.5" stroke="black" stroke-width="1.5" stroke-linecap="round" stroke-linejoin="round"/>
</svg>
