<svg width="20" height="23" viewBox="0 0 20 23" fill="none" xmlns="http://www.w3.org/2000/svg">
<path d="M16.7501 9.21V8.505C16.7501 4.636 13.7261 1.5 10.0001 1.5C6.27406 1.5 3.25006 4.636 3.25006 8.505V9.21C3.25127 10.0516 3.01111 10.8758 2.55806 11.585L1.45006 13.31C0.439062 14.885 1.21106 17.026 2.97006 17.524C7.56617 18.827 12.434 18.827 17.0301 17.524C18.7891 17.026 19.5611 14.885 18.5501 13.311L17.4421 11.586C16.9887 10.8769 16.7482 10.0527 16.7491 9.211L16.7501 9.21Z" stroke="#181818" stroke-width="2"/>
<path opacity="0.5" d="M5.5 18.5C6.155 20.248 7.922 21.5 10 21.5C12.078 21.5 13.845 20.248 14.5 18.5" stroke="#181818" stroke-width="2" stroke-linecap="round"/>
</svg>
