<svg width="16" height="13" viewBox="0 0 16 13" fill="none" xmlns="http://www.w3.org/2000/svg">
<path d="M1.5 0.5C1.10218 0.5 0.720644 0.658035 0.43934 0.93934C0.158035 1.22064 0 1.60218 0 2V4C0 4.39782 0.158035 4.77936 0.43934 5.06066C0.720644 5.34196 1.10218 5.5 1.5 5.5H3.5C3.89782 5.5 4.27936 5.34196 4.56066 5.06066C4.84196 4.77936 5 4.39782 5 4V2C5 1.60218 4.84196 1.22064 4.56066 0.93934C4.27936 0.658035 3.89782 0.5 3.5 0.5H1.5ZM1 2C1 1.86739 1.05268 1.74021 1.14645 1.64645C1.24021 1.55268 1.36739 1.5 1.5 1.5H3.5C3.63261 1.5 3.75979 1.55268 3.85355 1.64645C3.94732 1.74021 4 1.86739 4 2V4C4 4.13261 3.94732 4.25979 3.85355 4.35355C3.75979 4.44732 3.63261 4.5 3.5 4.5H1.5C1.36739 4.5 1.24021 4.44732 1.14645 4.35355C1.05268 4.25979 1 4.13261 1 4V2ZM7.5 1.5C7.36739 1.5 7.24021 1.55268 7.14645 1.64645C7.05268 1.74021 7 1.86739 7 2C7 2.13261 7.05268 2.25979 7.14645 2.35355C7.24021 2.44732 7.36739 2.5 7.5 2.5H15.5C15.6326 2.5 15.7598 2.44732 15.8536 2.35355C15.9473 2.25979 16 2.13261 16 2C16 1.86739 15.9473 1.74021 15.8536 1.64645C15.7598 1.55268 15.6326 1.5 15.5 1.5H7.5ZM7.5 3.5C7.36739 3.5 7.24021 3.55268 7.14645 3.64645C7.05268 3.74021 7 3.86739 7 4C7 4.13261 7.05268 4.25979 7.14645 4.35355C7.24021 4.44732 7.36739 4.5 7.5 4.5H13.5C13.6326 4.5 13.7598 4.44732 13.8536 4.35355C13.9473 4.25979 14 4.13261 14 4C14 3.86739 13.9473 3.74021 13.8536 3.64645C13.7598 3.55268 13.6326 3.5 13.5 3.5H7.5ZM1.5 7.5C1.10218 7.5 0.720644 7.65804 0.43934 7.93934C0.158035 8.22064 0 8.60218 0 9V11C0 11.3978 0.158035 11.7794 0.43934 12.0607C0.720644 12.342 1.10218 12.5 1.5 12.5H3.5C3.89782 12.5 4.27936 12.342 4.56066 12.0607C4.84196 11.7794 5 11.3978 5 11V9C5 8.60218 4.84196 8.22064 4.56066 7.93934C4.27936 7.65804 3.89782 7.5 3.5 7.5H1.5ZM1 9C1 8.86739 1.05268 8.74021 1.14645 8.64645C1.24021 8.55268 1.36739 8.5 1.5 8.5H3.5C3.63261 8.5 3.75979 8.55268 3.85355 8.64645C3.94732 8.74021 4 8.86739 4 9V11C4 11.1326 3.94732 11.2598 3.85355 11.3536C3.75979 11.4473 3.63261 11.5 3.5 11.5H1.5C1.36739 11.5 1.24021 11.4473 1.14645 11.3536C1.05268 11.2598 1 11.1326 1 11V9ZM7.5 8.5C7.36739 8.5 7.24021 8.55268 7.14645 8.64645C7.05268 8.74021 7 8.86739 7 9C7 9.13261 7.05268 9.25979 7.14645 9.35355C7.24021 9.44732 7.36739 9.5 7.5 9.5H15.5C15.6326 9.5 15.7598 9.44732 15.8536 9.35355C15.9473 9.25979 16 9.13261 16 9C16 8.86739 15.9473 8.74021 15.8536 8.64645C15.7598 8.55268 15.6326 8.5 15.5 8.5H7.5ZM7.5 10.5C7.36739 10.5 7.24021 10.5527 7.14645 10.6464C7.05268 10.7402 7 10.8674 7 11C7 11.1326 7.05268 11.2598 7.14645 11.3536C7.24021 11.4473 7.36739 11.5 7.5 11.5H13.5C13.6326 11.5 13.7598 11.4473 13.8536 11.3536C13.9473 11.2598 14 11.1326 14 11C14 10.8674 13.9473 10.7402 13.8536 10.6464C13.7598 10.5527 13.6326 10.5 13.5 10.5H7.5Z" fill="black"/>
</svg>
