<svg width="22" height="17" viewBox="0 0 22 17" fill="none" xmlns="http://www.w3.org/2000/svg">
<path d="M4 6.47901C4 7.59501 5.79 8.50001 8 8.50001V6.47901C8 5.48501 8 4.98701 7.603 4.68401C7.205 4.38101 6.811 4.49401 6.023 4.72101C4.815 5.07001 4 5.72501 4 6.47901Z" stroke="black" stroke-width="1.5" stroke-linecap="round" stroke-linejoin="round"/>
<path d="M15 5C15 6.933 11.866 8.5 8 8.5C4.134 8.5 1 6.933 1 5C1 3.067 4.134 1.5 8 1.5C11.866 1.5 15 3.067 15 5Z" stroke="black" stroke-width="1.5" stroke-linecap="round" stroke-linejoin="round"/>
<path d="M1 5.5V12.167C1 14.007 4.134 15.5 8 15.5H19C19.943 15.5 20.414 15.5 20.707 15.207C21 14.914 21 14.443 21 13.5V10.5C21 9.557 21 9.086 20.707 8.793C20.414 8.5 19.943 8.5 19 8.5H8M17 15.5V13.5M13 15.5V13.5M9 15.5V13.5M5 15V13" stroke="black" stroke-width="1.5" stroke-linecap="round" stroke-linejoin="round"/>
</svg>
